<mxfile host="Electron" modified="2023-05-07T11:50:25.155Z" agent="Mozilla/5.0 (Macintosh; Intel Mac OS X 10_15_7) AppleWebKit/537.36 (KHTML, like Gecko) draw.io/21.2.8 Chrome/112.0.5615.165 Electron/24.2.0 Safari/537.36" etag="1703bjydxA0PLr_OyNEV" version="21.2.8" type="device">
  <diagram name="Page-1" id="A-HCYHpP08vCLw4_zFqz">
    <mxGraphModel dx="1468" dy="1075" grid="1" gridSize="10" guides="1" tooltips="1" connect="1" arrows="1" fold="1" page="1" pageScale="1" pageWidth="827" pageHeight="1169" math="0" shadow="0">
      <root>
        <mxCell id="0" />
        <mxCell id="1" parent="0" />
        <mxCell id="HY-IIbvWQKwJW-4mLAR2-1" value="f(𝑥) =" style="rounded=0;whiteSpace=wrap;html=1;fillColor=none;fontSize=30;fontFamily=Ubuntu Mono;strokeWidth=3;strokeColor=none;" parent="1" vertex="1">
          <mxGeometry x="40" y="260" width="120" height="40" as="geometry" />
        </mxCell>
        <mxCell id="HY-IIbvWQKwJW-4mLAR2-2" value="&amp;nbsp;f(a) + (u)Δf(a) + (u)(u-1)Δ&lt;sup&gt;2&lt;/sup&gt;f(a) + (u)(u-1)(u-2)Δ&lt;span style=&quot;font-size: 25px;&quot;&gt;&lt;sup&gt;3&lt;/sup&gt;&lt;/span&gt;f(a) +&amp;nbsp;" style="rounded=0;whiteSpace=wrap;html=1;fillColor=none;fontSize=30;fontFamily=Ubuntu Mono;strokeWidth=3;strokeColor=none;align=left;" parent="1" vertex="1">
          <mxGeometry x="160" y="240" width="880" height="40" as="geometry" />
        </mxCell>
        <mxCell id="HY-IIbvWQKwJW-4mLAR2-3" value="1!" style="rounded=0;whiteSpace=wrap;html=1;fillColor=none;fontSize=30;fontFamily=Ubuntu Mono;strokeWidth=3;strokeColor=none;align=center;" parent="1" vertex="1">
          <mxGeometry x="320" y="280" width="50" height="40" as="geometry" />
        </mxCell>
        <mxCell id="HY-IIbvWQKwJW-4mLAR2-4" value="2!" style="rounded=0;whiteSpace=wrap;html=1;fillColor=none;fontSize=30;fontFamily=Ubuntu Mono;strokeWidth=3;strokeColor=none;align=center;" parent="1" vertex="1">
          <mxGeometry x="530" y="280" width="50" height="40" as="geometry" />
        </mxCell>
        <mxCell id="HY-IIbvWQKwJW-4mLAR2-5" value="3!" style="rounded=0;whiteSpace=wrap;html=1;fillColor=none;fontSize=30;fontFamily=Ubuntu Mono;strokeWidth=3;strokeColor=none;align=center;" parent="1" vertex="1">
          <mxGeometry x="810" y="280" width="50" height="40" as="geometry" />
        </mxCell>
        <mxCell id="HY-IIbvWQKwJW-4mLAR2-7" value="" style="endArrow=none;html=1;rounded=0;strokeWidth=2;" parent="1" edge="1">
          <mxGeometry width="50" height="50" relative="1" as="geometry">
            <mxPoint x="280" y="285" as="sourcePoint" />
            <mxPoint x="400" y="285" as="targetPoint" />
          </mxGeometry>
        </mxCell>
        <mxCell id="HY-IIbvWQKwJW-4mLAR2-8" value="" style="endArrow=none;html=1;rounded=0;strokeWidth=2;" parent="1" edge="1">
          <mxGeometry width="50" height="50" relative="1" as="geometry">
            <mxPoint x="450" y="285" as="sourcePoint" />
            <mxPoint x="650" y="285" as="targetPoint" />
          </mxGeometry>
        </mxCell>
        <mxCell id="HY-IIbvWQKwJW-4mLAR2-9" value="" style="endArrow=none;html=1;rounded=0;strokeWidth=2;" parent="1" edge="1">
          <mxGeometry width="50" height="50" relative="1" as="geometry">
            <mxPoint x="700" y="285" as="sourcePoint" />
            <mxPoint x="980" y="285" as="targetPoint" />
          </mxGeometry>
        </mxCell>
        <mxCell id="EV-e3KLOLpbBkh6CqxRT-1" value="......" style="rounded=0;whiteSpace=wrap;html=1;fillColor=none;fontSize=40;fontFamily=Ubuntu Mono;strokeWidth=3;strokeColor=none;" vertex="1" parent="1">
          <mxGeometry x="1030" y="240" width="120" height="50" as="geometry" />
        </mxCell>
      </root>
    </mxGraphModel>
  </diagram>
</mxfile>
